<svg width="1" height="1" viewBox="0 0 52 75" fill="none" xmlns="http://www.w3.org/2000/svg">
<path d="M25.402 75C29.1997 75 32.2784 72.9671 32.2784 70.4594C32.2784 67.9516 29.1997 65.9187 25.402 65.9187C21.6043 65.9187 18.5257 67.9516 18.5257 70.4594C18.5257 72.9671 21.6043 75 25.402 75Z" fill="#6C63FF"/>
<path d="M26 0C19.1044 5.95933e-07 12.4912 1.80882 7.61521 5.02854C2.73927 8.24826 9.0248e-07 12.6151 0 17.1685C0 26.6504 26 62.5425 26 62.5425C26 62.5425 52 26.6504 52 17.1685C52 12.6151 49.2607 8.24826 44.3848 5.02854C39.5088 1.80882 32.8956 5.95933e-07 26 0V0ZM26 25.344C23.5513 25.344 21.1575 24.8645 19.1215 23.9662C17.0855 23.0678 15.4986 21.791 14.5615 20.2971C13.6244 18.8033 13.3792 17.1594 13.8569 15.5736C14.3346 13.9877 15.5138 12.5309 17.2453 11.3876C18.9768 10.2442 21.1829 9.46557 23.5846 9.15011C25.9863 8.83466 28.4757 8.99656 30.738 9.61535C33.0003 10.2341 34.9339 11.282 36.2944 12.6265C37.6548 13.9709 38.3809 15.5516 38.3809 17.1685C38.3809 19.3368 37.0765 21.4163 34.7547 22.9495C32.4328 24.4827 29.2836 25.344 26 25.344V25.344Z" fill="#6C63FF"/>
</svg>
